<?xml version="1.0" encoding="UTF-8"?>
<!DOCTYPE svg PUBLIC "-//W3C//DTD SVG 1.1//EN" "http://www.w3.org/Graphics/SVG/1.1/DTD/svg11.dtd">
<svg xmlns="http://www.w3.org/2000/svg" version="1.1" width="512px" height="512px" style="shape-rendering:geometricPrecision; text-rendering:geometricPrecision; image-rendering:optimizeQuality; fill-rule:evenodd; clip-rule:evenodd" xmlns:xlink="http://www.w3.org/1999/xlink">
<g><path style="opacity:0.989" fill="#000000" d="M 242.5,27.5 C 322.372,25.9529 380.205,60.6196 416,131.5C 433.367,173.537 435.034,216.204 421,259.5C 406.999,296.845 388.332,331.512 365,363.5C 332.601,407.073 296.101,447.073 255.5,483.5C 204.144,438.665 160.311,387.665 124,330.5C 110.261,308.021 98.9277,284.354 90,259.5C 70.4971,196.69 81.1638,139.69 122,88.5C 154.153,52.3402 194.319,32.0069 242.5,27.5 Z M 252.5,117.5 C 292.296,119.466 316.796,139.8 326,178.5C 329.125,214.761 314.291,240.594 281.5,256C 245.772,267.091 216.939,257.591 195,227.5C 176.331,191.695 181.831,160.195 211.5,133C 223.862,124.16 237.529,118.994 252.5,117.5 Z"/></g>
</svg>
